<svg xmlns="http://www.w3.org/2000/svg" width="360" height="360"><path d="M180.5 355.583c-96.65 0-175-78.35-175-175 0-96.649 78.35-175 175-175s175 78.351 175 175c0 96.65-78.35 175-175 175z" fill="#FFF"/><path d="M180.5 355.583c-96.65 0-175-78.35-175-175 0-96.649 78.35-175 175-175s175 78.351 175 175c0 96.65-78.35 175-175 175z" stroke="#6AB8FF" stroke-width="4" fill="none"/><path d="M74.25 225.375h56.25v56.25H74.25v-56.25z" fill="#1550B2"/><path d="M74.25 225.375h56.25v56.25H74.25v-56.25z" stroke="#1550B2" stroke-width="3.125" stroke-linejoin="round" fill="none"/><path d="M224.25 225.375h56.25v56.25h-56.25v-56.25z" fill="#1550B2"/><path d="M224.25 225.375h56.25v56.25h-56.25v-56.25z" stroke="#1550B2" stroke-width="3.125" stroke-linejoin="round" fill="none"/><path d="M149.25 150.375h56.25v56.25h-56.25v-56.25z" fill="#1550B2"/><path d="M149.25 150.375h56.25v56.25h-56.25v-56.25z" stroke="#1550B2" stroke-width="3.125" stroke-linejoin="round" fill="none"/><g><path d="M224.25 75.375h56.25v56.25h-56.25v-56.25z" fill="#1550B2"/><path d="M224.25 75.375h56.25v56.25h-56.25v-56.25z" stroke="#1550B2" stroke-width="3.125" stroke-linejoin="round" fill="none"/></g><g><path d="M224.25 150.375h56.25v56.25h-56.25v-56.25z" fill="#1881F4"/><path d="M224.25 150.375h56.25v56.25h-56.25v-56.25z" stroke="#1881F4" stroke-width="3.125" stroke-linejoin="round" fill="none"/></g><g><path d="M149.25 225.375h56.25v56.25h-56.25v-56.25z" fill="#1881F4"/><path d="M149.25 225.375h56.25v56.25h-56.25v-56.25z" stroke="#1881F4" stroke-width="3.125" stroke-linejoin="round" fill="none"/></g></svg>